<?xml version="1.0" encoding="iso-8859-1"?>
<!-- Generator: Adobe Illustrator 19.0.0, SVG Export Plug-In . SVG Version: 6.00 Build 0)  -->
<svg version="1.1" id="Capa_1" xmlns="http://www.w3.org/2000/svg" xmlns:xlink="http://www.w3.org/1999/xlink" x="0px" y="0px"
	 viewBox="0 0 512 512" style="enable-background:new 0 0 512 512;" xml:space="preserve">
<g>
	<g>
		<path d="M497,339.006c-8.284,0-15,6.716-15,15c0,36.024-29.308,65.332-65.332,65.332H182.891l210.537-140.354
			c20.645-13.762,26.245-41.756,12.482-62.405c-8.453-12.677-22.666-20.2-37.953-20.03c-0.162-0.004-0.325-0.006-0.489-0.006
			H207.801c-24.813,0-45,20.187-45,44.999s20.187,45,45,45h12.039l-120.527,80.35c-17.474,11.648-24.165,33.491-17.466,52.447H15
			c-8.284,0-15,6.716-15,15s6.716,14.999,15,14.999h401.668c52.566,0,95.332-42.765,95.332-95.331
			C512,345.722,505.284,339.006,497,339.006z M124.301,419.338c-5.043,0-9.72-2.499-12.509-6.681
			c-4.588-6.884-2.721-16.217,4.161-20.805l161.75-107.831c5.5-3.666,7.951-10.501,6.036-16.827s-7.746-10.653-14.356-10.653
			h-61.582c-8.27,0-15-6.729-15-15s6.73-14.999,15-14.999H367.32c0.154,0.004,0.309,0.007,0.464,0.008
			c0.125,0.003,0.25,0,0.375-0.002l0.277-0.002c5.049,0,9.727,2.495,12.513,6.674c4.588,6.883,2.721,16.215-4.161,20.802
			L132.593,416.814C130.116,418.465,127.249,419.338,124.301,419.338z"/>
	</g>
</g>
<g>
	<g>
		<path d="M419.877,62.662c-34.849,0-63.199,28.352-63.199,63.201c0,34.846,28.35,63.197,63.199,63.197
			c34.848,0,63.2-28.35,63.203-63.198C483.077,91.013,454.725,62.662,419.877,62.662z M419.877,159.059
			c-18.306,0-33.199-14.893-33.199-33.197c0-18.307,14.893-33.201,33.199-33.201c18.307,0,33.202,14.895,33.203,33.2
			C453.079,144.167,438.183,159.059,419.877,159.059z"/>
	</g>
</g>
<g>
</g>
<g>
</g>
<g>
</g>
<g>
</g>
<g>
</g>
<g>
</g>
<g>
</g>
<g>
</g>
<g>
</g>
<g>
</g>
<g>
</g>
<g>
</g>
<g>
</g>
<g>
</g>
<g>
</g>
</svg>
