<?xml version="1.0" encoding="iso-8859-1"?>
<!-- Generator: Adobe Illustrator 19.0.0, SVG Export Plug-In . SVG Version: 6.00 Build 0)  -->
<svg version="1.1" id="Capa_1" xmlns="http://www.w3.org/2000/svg" xmlns:xlink="http://www.w3.org/1999/xlink" x="0px" y="0px"
	 viewBox="0 0 512 512" style="enable-background:new 0 0 512 512;" xml:space="preserve">
<g>
	<g>
		<path d="M497,389.672c-8.284,0-15,6.716-15,15c0,36.024-29.307,65.332-65.33,65.332h-49.268V337.206h1.066
			c24.813,0,45-20.187,45-44.999c0-24.814-20.187-45.002-45-45.002h-1.066v-51.398c0-8.284-6.716-15-15-15s-15,6.716-15,15v51.398
			H299.88l-35.762-71.526c-6.837-13.668-19.983-22.858-35.173-24.585c-1.679-0.19-3.387-0.287-5.075-0.287
			c-13.483,0-26.137,5.965-34.714,16.364L56.607,327.835c-11.032,13.371-13.385,32.143-5.993,47.828
			c7.394,15.679,23.371,25.81,40.704,25.81h51.4v53.533c0,5.258,0.915,10.304,2.58,14.998H15c-8.284,0-15,6.717-15,15
			c0,8.285,6.716,15,15,15h401.67c52.565,0,95.33-42.766,95.33-95.332C512,396.388,505.284,389.672,497,389.672z M337.402,470.004
			H230.139c1.665-4.694,2.58-9.74,2.58-14.998v-98.533c0-24.813-20.187-45-45-45h-0.937l27.773-33.665l17.262,34.523
			c7.671,15.344,23.093,24.876,40.249,24.876h65.336V470.004z M352.402,307.205c-0.006,0-0.013,0.001-0.02,0.001h-80.316
			c-5.719,0-10.858-3.177-13.416-8.291l-27.574-55.148c-2.27-4.54-6.681-7.624-11.724-8.196c-5.048-0.57-10.033,1.443-13.263,5.358
			l-62.699,75.998c-3.695,4.479-4.474,10.688-1.998,15.941c2.477,5.253,7.762,8.604,13.568,8.604h32.758c8.271,0,15,6.729,15,15
			v98.533c0,8.27-6.729,14.998-15,14.998s-15-6.729-15-14.998v-68.533c0-8.284-6.716-15-15-15h-66.4
			c-5.778,0-11.104-3.378-13.568-8.602c-2.464-5.228-1.68-11.487,1.998-15.944l132.55-160.666c2.859-3.466,7.077-5.454,11.572-5.454
			c0.563,0,1.134,0.032,1.691,0.095c5.063,0.576,9.446,3.641,11.725,8.196l39.906,79.815c2.541,5.082,7.735,8.292,13.417,8.292
			h77.859c8.271,0,15,6.729,15,15.002c0,8.271-6.729,14.999-15,14.999h-16.047C352.415,307.206,352.408,307.205,352.402,307.205z"/>
	</g>
</g>
<g>
	<g>
		<path d="M256,11.996c-34.849,0-63.199,28.352-63.199,63.203c0.003,34.847,28.353,63.197,63.196,63.197c0.001,0,0.011,0,0.012,0
			c34.842,0,63.189-28.351,63.192-63.198C319.201,40.35,290.849,11.998,256,11.996z M256.009,108.396H256
			c-18.305,0-33.198-14.894-33.199-33.198c0-18.307,14.893-33.202,33.198-33.202c18.308,0.001,33.202,14.896,33.202,33.201
			C289.2,93.503,274.309,108.396,256.009,108.396z"/>
	</g>
</g>
<g>
</g>
<g>
</g>
<g>
</g>
<g>
</g>
<g>
</g>
<g>
</g>
<g>
</g>
<g>
</g>
<g>
</g>
<g>
</g>
<g>
</g>
<g>
</g>
<g>
</g>
<g>
</g>
<g>
</g>
</svg>
