<?xml version="1.0" encoding="iso-8859-1"?>
<!-- Generator: Adobe Illustrator 19.0.0, SVG Export Plug-In . SVG Version: 6.00 Build 0)  -->
<svg version="1.1" id="Capa_1" xmlns="http://www.w3.org/2000/svg" xmlns:xlink="http://www.w3.org/1999/xlink" x="0px" y="0px"
	 viewBox="0 0 512 512" style="enable-background:new 0 0 512 512;" xml:space="preserve">
<g>
	<g>
		<path d="M300.689,44.219c-11.937-11.935-27.808-18.508-44.691-18.51c-34.847,0-63.197,28.351-63.197,63.199
			c0,16.88,6.574,32.75,18.511,44.687c11.937,11.938,27.808,18.512,44.688,18.512c34.85,0,63.201-28.35,63.201-63.197
			C319.202,72.028,312.628,56.156,300.689,44.219z M255.999,122.107h-0.003c-8.865,0.001-17.201-3.453-23.472-9.724
			s-9.725-14.607-9.725-23.474c0.001-18.307,14.894-33.2,33.197-33.2c8.871,0,17.21,3.454,23.481,9.725
			c6.271,6.27,9.724,14.606,9.723,23.475C289.201,107.215,274.306,122.107,255.999,122.107z"/>
	</g>
</g>
<g>
	<g>
		<path d="M507.607,259.615c-5.856-5.858-15.354-5.858-21.213,0L375.686,370.322c-2.142-4.498-5.063-8.713-8.78-12.432
			l-65.907-65.902v-32.761l53.539,0.001c24.811-0.003,44.998-20.19,44.998-45.001v-66.4c0-12.02-4.681-23.321-13.181-31.82
			c-8.499-8.499-19.797-13.179-31.815-13.179h-0.005c-24.814,0-45,20.187-45,44.999v21.4H202.466v-21.4
			c0-24.813-20.186-44.999-45.004-44.999c-12.02,0-23.319,4.681-31.818,13.181c-8.499,8.499-13.179,19.8-13.178,31.818v66.4
			c0,24.813,20.187,44.999,45,44.999h53.531v32.761l-65.904,65.903c-3.719,3.717-6.641,7.933-8.783,12.43L25.606,259.615
			c-5.857-5.858-15.355-5.858-21.213,0c-5.858,5.857-5.858,15.355,0,21.213l140.649,140.651c0.018,0.017,0.032,0.034,0.049,0.051
			c0.018,0.018,0.036,0.034,0.054,0.051l60.316,60.317c2.929,2.929,6.768,4.393,10.607,4.393c3.838,0,7.678-1.465,10.606-4.393
			c5.858-5.858,5.858-15.354,0-21.213l-30.354-30.354c4.546-2.176,8.74-5.13,12.41-8.8l47.267-47.265l47.27,47.268
			c3.669,3.669,7.863,6.622,12.408,8.798l-30.353,30.353c-5.858,5.857-5.858,15.355,0,21.213c2.929,2.93,6.768,4.393,10.607,4.393
			c3.838,0,7.678-1.465,10.606-4.393l60.295-60.295c0.024-0.025,0.052-0.047,0.076-0.072c0.024-0.024,0.046-0.049,0.069-0.073
			l140.63-140.629C513.465,274.97,513.465,265.472,507.607,259.615z M345.711,400.296l-0.043,0.043
			c-2.829,2.818-6.583,4.371-10.576,4.371h-0.008c-4.007,0-7.772-1.56-10.604-4.391l-57.875-57.873
			c-2.929-2.929-6.768-4.393-10.607-4.393c-3.839,0-7.678,1.464-10.606,4.393l-57.873,57.872c-2.833,2.832-6.6,4.393-10.607,4.393
			c-3.996,0-7.749-1.551-10.577-4.366l-0.051-0.051c-5.823-5.854-5.819-15.35,0.021-21.189l70.299-70.297
			c2.813-2.813,4.393-6.628,4.393-10.607v-53.975c0-8.284-6.716-15-15-15h-68.531c-8.271,0-15-6.729-15-14.999v-66.401
			c-0.001-4.005,1.56-7.771,4.392-10.604c2.833-2.833,6.599-4.393,10.608-4.393c8.271,0,15,6.729,15,14.999v36.4
			c0,8.284,6.716,15,15,15h137.068c8.284,0,15-6.716,15-15v-36.4c0-8.271,6.728-14.999,15.002-14.999
			c4.006,0,7.772,1.56,10.605,4.392c2.833,2.833,4.394,6.6,4.394,10.607v66.4c0,8.27-6.729,15-15,15.001l-68.537-0.002
			c-3.978,0-7.793,1.58-10.606,4.393c-2.814,2.813-4.394,6.628-4.394,10.607V298.2c0,3.978,1.58,7.794,4.394,10.607l70.3,70.294
			C351.531,384.944,351.536,394.445,345.711,400.296z"/>
	</g>
</g>
<g>
</g>
<g>
</g>
<g>
</g>
<g>
</g>
<g>
</g>
<g>
</g>
<g>
</g>
<g>
</g>
<g>
</g>
<g>
</g>
<g>
</g>
<g>
</g>
<g>
</g>
<g>
</g>
<g>
</g>
</svg>
