<svg id="Layer_1" enable-background="new 0 0 512 512" height="512" viewBox="0 0 512 512" width="512" xmlns="http://www.w3.org/2000/svg"><path d="m384.533 0h-257.066c-70.285 0-127.467 57.182-127.467 127.467v257.066c0 70.285 57.182 127.467 127.467 127.467h257.066c70.285 0 127.467-57.182 127.467-127.467v-257.066c0-70.285-57.182-127.467-127.467-127.467zm0 482h-257.066c-53.743 0-97.467-43.724-97.467-97.467v-257.066c0-21.471 6.984-41.338 18.792-57.462l63.675 63.675v76.892l-5.962 7.451c-16.877 21.097-26.172 47.594-26.172 74.609v12.635h-1.066c-8.284 0-15 6.716-15 15 0 5.454 2.921 10.214 7.274 12.84-4.619 8.063-7.274 17.388-7.274 27.327 0 30.419 24.748 55.167 55.167 55.167s55.166-24.748 55.166-55.167c0-9.063-2.211-17.615-6.1-25.167h38.433c-3.889 7.552-6.1 16.103-6.1 25.167 0 30.419 24.748 55.167 55.167 55.167s55.167-24.748 55.167-55.167c0-9.063-2.211-17.615-6.1-25.167h8.987l23.4 23.4c-.019.589-.054 1.173-.054 1.766 0 30.419 24.747 55.167 55.166 55.167.595 0 1.185-.026 1.776-.045l47.653 47.653c-16.123 11.808-35.991 18.792-57.462 18.792zm-188.329-307.009-48.591-48.591h45.187v28.452c0 6.62 1.146 13.48 3.404 20.139zm68.007 15.695-15.414-3.425c-15.307-3.401-25.997-16.728-25.997-32.408v-28.453h34.267v32.027c-.001 11.174 2.479 22.205 7.144 32.259zm-21.921 25.86 120.799 26.848c22.714 5.045 38.578 24.82 38.578 48.089v13.783h-75.188l-90.435-90.435c2.014.659 4.093 1.237 6.246 1.715zm161.746 166.277-33.859-33.859c4.178-8.124 12.642-13.698 22.389-13.698 13.877 0 25.167 11.29 25.167 25.167 0 9.747-5.573 18.211-13.697 22.39zm-119.982-77.556h-173.721v-12.635c0-20.23 6.96-40.071 19.598-55.868l9.248-11.558c2.128-2.66 3.288-5.965 3.288-9.372v-52.154zm-2.887 55.166c0 13.877-11.29 25.167-25.167 25.167s-25.167-11.29-25.167-25.167 11.29-25.167 25.167-25.167 25.167 11.29 25.167 25.167zm-136.567 0c0 13.877-11.289 25.167-25.166 25.167s-25.167-11.29-25.167-25.167 11.29-25.167 25.167-25.167 25.166 11.29 25.166 25.167zm337.4 24.1c0 21.471-6.984 41.338-18.792 57.462l-37.495-37.495c13.364-10.077 22.021-26.079 22.021-44.067 0-9.939-2.656-19.264-7.274-27.327 4.353-2.625 7.274-7.385 7.274-12.84 0-8.284-6.716-15-15-15h-1.066v-13.783c0-31.111-20.237-68.084-62.07-77.375l-46.213-10.273c-21.39-4.818-36.317-23.471-36.317-45.408v-47.027c0-8.284-6.716-15-15-15h-144.6c-2.822 0-5.452.793-7.706 2.148l-49.757-49.756c16.123-11.808 35.991-18.792 57.462-18.792h257.066c53.743 0 97.467 43.724 97.467 97.467z"/></svg>