<?xml version="1.0" encoding="iso-8859-1"?>
<!-- Generator: Adobe Illustrator 19.0.0, SVG Export Plug-In . SVG Version: 6.00 Build 0)  -->
<svg version="1.1" id="Capa_1" xmlns="http://www.w3.org/2000/svg" xmlns:xlink="http://www.w3.org/1999/xlink" x="0px" y="0px"
	 viewBox="0 0 512 512" style="enable-background:new 0 0 512 512;" xml:space="preserve">
<g>
	<g>
		<path d="M503.699,303.589c-7.409-3.705-16.419-0.701-20.123,6.708l-12.042,24.083c-40.21,80.418-118.208,133.063-202.275,144.976
			c1.124-3.929,1.739-8.072,1.739-12.357V200.147l85.931-21.482c10.869-2.729,20.281-9.365,26.508-18.693l60-90
			c13.787-20.69,8.211-48.61-12.482-62.398c-20.688-13.791-48.601-8.23-62.4,12.48l-50.352,75.521l-33.878,8.474
			c1.084-4.505,1.674-9.201,1.674-14.035c0-33.083-26.915-59.998-59.998-59.998c-33.083,0-59.998,26.915-59.998,59.998
			c0,2.623,0.188,5.2,0.515,7.735l-1.64-0.547l-51.442-77.163C99.644-0.592,71.652-6.18,51.047,7.571
			C30.401,21.326,24.801,49.32,38.564,69.974l60.003,90.005c5.531,8.286,13.771,14.58,23.2,17.722l59.233,19.745v54.423
			L95.07,273.352c-10.849,2.724-20.246,9.341-26.469,18.634L7.628,381.948c-0.021,0.033-0.044,0.065-0.065,0.098
			c-13.761,20.651-8.16,48.645,12.474,62.392c20.478,13.673,48.449,8.382,62.368-12.413l51.321-75.563l47.276-11.819v122.358
			c0,5.258,0.915,10.305,2.58,15H15.006c-8.284-0.001-15,6.715-15,14.999s6.716,15,15,15h216.676
			c112.74,0,216.749-64.332,266.684-164.202l12.042-24.084C514.112,316.304,511.109,307.294,503.699,303.589z M225.999,60.013
			c16.542,0,29.999,13.458,29.999,29.999c0,16.542-13.458,29.999-29.999,29.999S196,106.554,196,90.013
			C196,73.471,209.458,60.013,225.999,60.013z M240.998,188.436V467c0,8.271-6.729,15-15,15S211,475.272,211,467.001V325.433
			c0-4.619-2.128-8.98-5.769-11.823c-3.641-2.843-8.387-3.848-12.869-2.729l-71.468,17.867c-3.577,0.895-6.699,3.075-8.771,6.125
			l-54.567,80.345c-0.023,0.034-0.047,0.068-0.069,0.103c-4.573,6.853-13.877,8.788-20.806,4.163
			c-6.884-4.587-8.742-13.872-4.181-20.762l60.958-89.937c0.02-0.029,0.039-0.059,0.06-0.088c2.079-3.115,5.224-5.333,8.842-6.241
			l97.277-24.319c6.678-1.669,11.362-7.669,11.362-14.552v-76.946c0-6.457-4.132-12.188-10.257-14.23l-69.49-23.163
			c-3.14-1.046-5.887-3.148-7.731-5.911L63.525,53.337c-4.536-6.809-2.826-16.15,4.164-20.807
			c6.868-4.581,16.201-2.709,20.794,4.164l54.285,81.429c1.85,2.775,4.571,4.854,7.735,5.909l37.781,12.6
			c10.313,8.359,23.435,13.381,37.714,13.381c10.779,0,20.893-2.872,29.645-7.868l75.461-18.873c3.619-0.905,6.771-3.126,8.841-6.23
			l53.569-80.349c4.566-6.85,13.848-8.79,20.801-4.155c6.892,4.592,8.751,13.903,4.157,20.797l-59.994,89.99
			c-2.079,3.115-5.224,5.333-8.842,6.241l-97.277,24.319C245.682,175.553,240.998,181.553,240.998,188.436z"/>
	</g>
</g>
<g>
</g>
<g>
</g>
<g>
</g>
<g>
</g>
<g>
</g>
<g>
</g>
<g>
</g>
<g>
</g>
<g>
</g>
<g>
</g>
<g>
</g>
<g>
</g>
<g>
</g>
<g>
</g>
<g>
</g>
</svg>
