<svg height="512pt" viewBox="0 0 512 512" width="512pt" xmlns="http://www.w3.org/2000/svg"><path d="m452 0c-33.085938 0-60 26.914062-60 60v276.804688l-86.34375-42.824219c15.789062-18.550781 25.34375-42.660157 25.34375-68.980469v-60c0-44.140625-27.382812-82.003906-66.050781-97.507812 3.839843-6.621094 6.050781-14.300782 6.050781-22.492188 0-24.8125-20.1875-45-45-45s-45 20.1875-45 45c0 8.191406 2.210938 15.871094 6.050781 22.492188-38.667969 15.503906-66.050781 53.367187-66.050781 97.507812v60c0 26.320312 9.554688 50.429688 25.34375 68.980469l-104.886719 52.019531c-25.570312 12.785156-41.457031 38.492188-41.457031 67.082031v83.917969c0 8.285156 6.714844 15 15 15h437c33.425781 0 60-28.113281 60-61 0-47.636719 0-374.074219 0-391 0-33.085938-26.914062-60-60-60zm0 30c16.542969 0 30 13.457031 30 30v128.277344c-9.042969-5.390625-19.3125-8.277344-30-8.277344s-20.957031 2.886719-30 8.277344v-128.277344c0-16.542969 13.457031-30 30-30zm30 241c0 16.542969-13.457031 30-30 30s-30-13.457031-30-30v-30c0-16.804688 13.738281-31 30-31s30 14.195312 30 31zm-81.5625 211h-36.75l19.242188-116.207031 9.070312 4.5v80.707031c0 11.027344 2.9375 21.664062 8.4375 31zm-159.4375 0v-152.085938c14.5-2.101562 28.050781-7.207031 40.015625-14.667968l73.8125 36.609375-1.515625 9.144531h-67.3125c-8.285156 0-15 6.714844-15 15s6.714844 15 15 15h62.347656l-4.96875 30h-57.378906c-8.285156 0-15 6.714844-15 15s6.714844 15 15 15h52.410156l-5.132812 31zm-122.28125 0-5.132812-31h52.414062c8.285156 0 15-6.714844 15-15s-6.714844-15-15-15h-57.378906l-4.96875-30h62.347656c8.285156 0 15-6.714844 15-15s-6.714844-15-15-15h-67.316406l-1.511719-9.144531 73.8125-36.609375c11.964844 7.460937 25.515625 12.5625 40.015625 14.667968v152.085938zm32.28125-302h150v45c0 41.90625-33.644531 76-75 76s-75-34.09375-75-76zm60-135c0-8.269531 6.730469-15 15-15s15 6.730469 15 15-6.730469 15-15 15-15-6.730469-15-15zm15 45c36.21875 0 66.523438 25.808594 73.492188 60h-146.984376c6.96875-34.191406 37.273438-60 73.492188-60zm-196 323.082031c0-17.15625 9.53125-32.578125 24.832031-40.226562l14.238281-7.0625 19.242188 116.207031h-58.3125zm422 68.917969c-16.261719 0-30-14.195312-30-31v-128.070312c8.832031 5.121093 19.074219 8.070312 30 8.070312s21.167969-2.949219 30-8.070312v128.070312c0 16.804688-13.738281 31-30 31zm0 0"/></svg>