<?xml version="1.0" encoding="iso-8859-1"?>
<!-- Generator: Adobe Illustrator 19.0.0, SVG Export Plug-In . SVG Version: 6.00 Build 0)  -->
<svg version="1.1" id="Layer_1" xmlns="http://www.w3.org/2000/svg" xmlns:xlink="http://www.w3.org/1999/xlink" x="0px" y="0px"
	 viewBox="0 0 512.002 512.002" style="enable-background:new 0 0 512.002 512.002;" xml:space="preserve">
<g>
	<g>
		<path d="M428.688,144.375l-59.727-59.728c-9.656-9.656-22.53-14.974-36.251-14.974s-26.595,5.318-36.25,14.974L84.649,296.457
			c-9.656,9.656-14.974,22.53-14.974,36.25s5.318,26.595,14.974,36.25l59.727,59.728c9.995,9.994,23.122,14.992,36.251,14.992
			c13.129,0,26.257-4.998,36.251-14.992l51.182-51.182c9.684-9.683,15.017-22.557,15.017-36.251c0-13.694-5.333-26.568-15.015-36.25
			c-6.664-6.664-6.664-17.505,0-24.168l24.168-24.167c3.228-3.227,7.519-5.006,12.083-5.006c4.565,0,8.855,1.778,12.084,5.006
			c19.988,19.988,52.514,19.988,72.501,0l39.79-39.791c9.656-9.656,14.974-22.53,14.974-36.25S438.344,154.031,428.688,144.375z
			 M404.52,192.708l-39.79,39.791c-3.228,3.227-7.519,5.006-12.084,5.006c-4.564,0-8.855-1.778-12.083-5.006
			c-9.683-9.684-22.557-15.017-36.251-15.017s-26.568,5.334-36.25,15.017l-24.167,24.167c-19.989,19.989-19.989,52.513,0,72.502
			c3.228,3.228,5.005,7.52,5.005,12.083c0,4.565-1.777,8.855-5.005,12.083l-51.182,51.183c-6.664,6.662-17.505,6.664-24.168,0
			l-59.727-59.728c-3.201-3.201-4.964-7.492-4.964-12.083c0-4.591,1.761-8.883,4.963-12.083l211.81-211.81
			c3.201-3.201,7.493-4.963,12.083-4.963c4.591,0,8.883,1.762,12.084,4.963l59.727,59.728c3.201,3.201,4.964,7.492,4.964,12.083
			C409.483,185.217,407.721,189.508,404.52,192.708z"/>
	</g>
</g>
<g>
	<g>
		<path d="M477.704,96.738l9.244-9.244c19.989-19.989,19.989-52.513,0-72.502c-19.987-19.991-52.513-19.988-72.501,0l-10.103,10.102
			C357.526-9.961,290.662-6.228,248.124,36.31L36.315,248.122c-22.564,22.564-34.99,52.603-34.99,84.585
			c0,26.201,8.345,51.094,23.765,71.643l-10.094,10.094c-19.991,19.99-19.991,52.513-0.001,72.503
			c9.684,9.684,22.557,15.017,36.251,15.017c13.694,0,26.568-5.334,36.25-15.017l9.245-9.244
			c23.232,22.86,53.557,34.298,83.886,34.298c30.632,0,61.265-11.66,84.585-34.981l51.182-51.183
			c22.986-22.986,35.351-53.935,34.99-85.847c31.858,0.387,62.862-12.005,85.847-34.991l39.791-39.79
			C523.432,218.8,523.654,143.434,477.704,96.738z M438.614,39.16c6.664-6.661,17.505-6.662,24.167,0
			c6.664,6.664,6.664,17.505,0,24.168l-9.235,9.235l-24.167-24.168L438.614,39.16z M63.329,462.78
			c-3.228,3.227-7.519,5.006-12.083,5.006c-4.565,0-8.855-1.778-12.084-5.006c-6.664-6.664-6.664-17.505,0-24.168l9.236-9.235
			l3.065,3.065l21.102,21.104L63.329,462.78z M452.856,241.044l-39.791,39.79c-20.259,20.259-49.21,28.965-77.434,23.275
			c-5.613-1.129-11.413,0.623-15.459,4.67c-4.047,4.047-5.799,9.85-4.669,15.457c5.686,28.226-3.014,57.175-23.275,77.435
			l-51.182,51.183c-33.315,33.314-87.521,33.314-120.837,0l-59.727-59.728c-16.109-16.109-24.979-37.566-24.979-60.418
			s8.869-44.31,24.978-60.419l211.81-211.81c16.658-16.657,38.538-24.986,60.418-24.986c21.881,0,43.761,8.329,60.418,24.986
			l48.335,48.335l11.393,11.393C486.17,153.521,486.17,207.73,452.856,241.044z"/>
	</g>
</g>
<g>
</g>
<g>
</g>
<g>
</g>
<g>
</g>
<g>
</g>
<g>
</g>
<g>
</g>
<g>
</g>
<g>
</g>
<g>
</g>
<g>
</g>
<g>
</g>
<g>
</g>
<g>
</g>
<g>
</g>
</svg>
