<svg height="511pt" viewBox="1 0 511.99825 511" width="511pt" xmlns="http://www.w3.org/2000/svg"><path d="m84.429688 114.410156-6.316407 6.316406c-5.855469 5.851563-5.859375 15.355469 0 21.210938l76.046875 76.046875c5.855469 5.855469 15.351563 5.859375 21.207032 0l10.601562-10.597656 48.910156 48.949219-135.621094 135.621093c-9.992187-7.957031-20.621093-13.988281-30.859374-17.402343-17.691407-5.894532-32.878907-3.695313-42.769532 6.195312s-12.089844 25.082031-6.195312 42.769531c3.414062 10.238281 9.445312 20.867188 17.402344 30.859375l-32.414063 32.414063c-5.855469 5.855469-5.855469 15.351562 0 21.207031 5.855469 5.859375 15.351563 5.859375 21.207031 0l32.414063-32.410156c9.992187 7.953125 20.625 13.984375 30.863281 17.398437 15.03125 5.011719 31.480469 5.089844 42.765625-6.195312 9.890625-9.890625 12.09375-25.078125 6.195313-42.765625-3.414063-10.238282-9.445313-20.871094-17.398438-30.863282l135.609375-135.609374 135.488281 135.605468c-7.960937 9.992188-13.992187 20.625-17.40625 30.863282-5.894531 17.6875-3.695312 32.878906 6.195313 42.769531 11.289062 11.289062 27.742187 11.203125 42.765625 6.195312 10.238281-3.414062 20.871094-9.445312 30.863281-17.402343l32.414063 32.414062c5.855468 5.859375 15.347656 5.859375 21.207031 0 5.855469-5.855469 5.855469-15.351562 0-21.207031l-32.414063-32.414063c7.957032-9.992187 13.988282-20.621094 17.402344-30.863281 5.894531-17.6875 3.695312-32.875-6.195312-42.765625-9.890626-9.890625-25.078126-12.089844-42.765626-6.195312-10.238281 3.410156-20.867187 9.445312-30.859374 17.398437l-135.488282-135.605469 48.964844-48.964844 10.605469 10.601563c5.851562 5.855469 15.355469 5.859375 21.207031 0l76.050781-76.046875c5.855469-5.855469 5.855469-15.351562 0-21.207031l-6.34375-6.34375c58.910157-29.898438 61.632813-27.734375 70.96875-37.074219 17.542969-17.542969 17.542969-46.082031 0-63.625s-46.085937-17.542969-63.625-.003906c-9.316406 9.316406-6.894531 11.507812-37.074219 70.972656l-6.34375-6.34375c-5.851562-5.851562-15.351562-5.855469-21.207031 0l-76.050781 76.050781c-5.851562 5.851563-5.855469 15.351563 0 21.207031l10.605469 10.601563-48.957031 48.957031-48.910157-48.949218 10.609375-10.609376c5.851563-5.851562 5.855469-15.351562 0-21.207031l-76.050781-76.050781c-5.855469-5.855469-15.351563-5.855469-21.207031 0l-6.394532 6.394531c-30.128906-58.945312-28.066406-61.742187-37.351562-71.019531-17.582031-17.582031-46.042969-17.585938-63.625 0-17.542969 17.539062-17.542969 46.082031 0 63.625 6.574219 6.578125 3.082031 3.917969 71.273438 37.097656zm26.035156 351.175782c-.367188.367187-3.941406 1.660156-12.074219-1.050782-9.707031-3.234375-20.765625-10.582031-30.34375-20.160156-9.574219-9.574219-16.921875-20.632812-20.15625-30.339844-2.714844-8.132812-1.417969-11.707031-1.050781-12.074218.1875-.191407 1.246094-.632813 3.355468-.632813 1.949219 0 4.808594.378906 8.714844 1.683594 9.703125 3.234375 20.757813 10.574219 30.328125 20.140625.003907.003906.011719.011718.015625.015625.007813.007812.011719.011719.019532.019531 9.566406 9.570312 16.90625 20.621094 20.140624 30.324219 2.710938 8.132812 1.417969 11.707031 1.050782 12.074219zm342.652344-62.574219c3.910156-1.304688 6.765624-1.683594 8.71875-1.683594 2.109374 0 3.164062.441406 3.355468.632813.367188.367187 1.660156 3.941406-1.050781 12.074218-3.238281 9.707032-10.585937 20.765625-20.160156 30.339844-9.574219 9.578125-20.632813 16.925781-30.34375 20.160156-8.128907 2.710938-11.707031 1.417969-12.070313 1.050782-.003906 0-.003906 0-.003906 0-.363281-.367188-1.660156-3.941407 1.050781-12.074219 3.234375-9.703125 10.574219-20.753907 20.140625-30.324219.003906-.003906.011719-.007812.015625-.011719.003907-.003906.007813-.011719.011719-.015625 9.574219-9.570312 20.628906-16.914062 30.335938-20.148437zm3.203124-368.117188c5.847657-5.847656 15.363282-5.847656 21.210938 0 5.847656 5.847657 5.847656 15.359375-.003906 21.207031-2.488282 2.492188-.160156.351563-42.652344 21.445313 21.089844-42.472656 18.953125-40.160156 21.445312-42.652344zm-75.226562 75.230469 21.207031 21.207031-54.839843 54.839844-21.210938-21.207031zm-195.121094 54.839844c-7.105468 7.105468-13.328125 13.332031-21.207031 21.207031l-54.84375-54.839844c7.578125-7.578125 13.601563-13.601562 21.210937-21.207031zm-151.609375-130.070313c5.859375-5.859375 15.34375-5.863281 21.210938 0 2.496093 2.496094.367187.203125 21.613281 42.652344-42.726562-21.128906-40.324219-18.945313-42.824219-21.445313-5.847656-5.847656-5.847656-15.359374 0-21.207031zm0 0"/></svg>