<svg id="Capa_1" enable-background="new 0 0 512 512" height="512" viewBox="0 0 512 512" width="512" xmlns="http://www.w3.org/2000/svg"><g><path d="m497 60.5h-150.55c-8.602 0-15.464 7.233-14.976 15.849l13.721 242.244-39.772 5.666c-12.868 1.833-24.941 6.981-35.116 14.8l.693-263.52c.022-8.294-6.702-15.039-15-15.039h-150c-8.607 0-15.446 7.233-14.978 15.816l13.202 242.272-39.802 5.67c-36.989 5.269-64.422 36.961-64.422 74.251v37.991c0 8.284 6.716 15 15 15h481.05c8.269 0 14.979-6.691 15-14.961l.95-361c.022-8.293-6.702-15.039-15-15.039zm-15.039 30-.079 30h-117.859l-1.699-30zm-241 0-.079 30h-117.407l-1.635-30zm-210.961 331v-22.991c0-22.259 16.617-41.411 38.653-44.55l53.412-7.609c7.701-1.097 13.286-7.898 12.862-15.666l-9.818-180.184h115.693l-.714 271zm241 0v-22.991c0-22.259 16.617-41.411 38.653-44.55l53.412-7.609c7.714-1.099 13.302-7.919 12.86-15.698l-10.203-180.152h116.08l-.714 271z"/></g></svg>