<svg xmlns="http://www.w3.org/2000/svg" viewBox="0 0 32 32">
  <path d="M31 29h-2.961l-1.304-1.903H5.265L3.961 29H1V16.951h2.092l1.951-8.244h2.478c0-1.046.881-1.903 1.957-1.903h5.217c.5 0 .958.185 1.305.488a1.98 1.98 0 0 1 1.305-.488h5.217c1.076 0 1.956.857 1.956 1.903h2.478l1.952 8.244H31ZM14.695 11.878H9.478c-1.076 0-1.957-.856-1.957-1.903H6.086l-1.659 6.976h23.145l-1.659-6.976h-1.435c0 1.047-.88 1.903-1.956 1.903h-5.217c-.5 0-.958-.185-1.305-.488a1.98 1.98 0 0 1-1.305.488Zm14.048 15.853h.953v-9.512H2.304v9.512h.952l1.305-1.902h22.871Zm.953-15.219h-1.305V4.268H3.609v8.244H2.304V3h27.392ZM9.478 8.073a.646.646 0 0 0-.653.634v1.268c0 .349.294.634.653.634h5.217a.645.645 0 0 0 .652-.634V8.707a.645.645 0 0 0-.652-.634Zm7.827 0a.646.646 0 0 0-.653.634v1.268c0 .349.294.634.653.634h5.217a.645.645 0 0 0 .652-.634V8.707a.645.645 0 0 0-.652-.634Z"></path>
</svg>
