<svg xmlns="http://www.w3.org/2000/svg" viewBox="0 0 32 32">
  <path d="M20.455 3.245h-8.909v1.244h8.909ZM10.273 2h11.455v2.489h2.545V30H8.363V4.489h1.91Zm3.818 21.778h4.455v4.978H23V5.733H9.637v23.023h4.454Zm3.182 1.245h-1.91v3.733h1.91Zm-1.91-8.711h-1.272v-1.867h-1.273v1.867h-1.272V13.2h3.817Zm0 4.977h-1.272v-1.866h-1.273v1.866h-1.272v-3.111h3.817Zm5.728-4.977h-1.273v-1.867h-1.272v1.867h-1.273V13.2h3.818Zm-5.728-4.979h-1.272V9.467h-1.273v1.866h-1.272v-3.11h3.817Zm5.728 0h-1.273V9.467h-1.272v1.866h-1.273v-3.11h3.818Zm0 9.956h-1.273v-1.866h-1.272v1.866h-1.273v-3.111h3.818ZM7.091 30H2V11.956h1.91V9.467h3.181v1.245H5.182v1.244h1.909V13.2H3.273v15.556h3.818ZM30 30h-4.454v-1.244h3.182v-9.333h-3.182v-1.245h1.909v-1.245h-1.909v-1.244h3.182v2.489H30Z"></path>
</svg>
