<svg xmlns="http://www.w3.org/2000/svg" viewBox="0 0 32 32">
  <path fill-rule="evenodd" d="M7.25 8.923c0-.927.784-1.851 2.443-2.575 1.619-.706 3.87-1.117 6.307-1.117 2.437 0 4.688.411 6.308 1.117 1.658.724 2.442 1.648 2.442 2.575v1.231H26V8.923c0-1.693-1.407-2.924-3.187-3.699C20.994 4.429 18.558 4 16 4c-2.557 0-4.994.429-6.813 1.224C7.407 5.999 6 7.23 6 8.923v1.231h1.25V8.923Zm-4.215 3.724c-.473.398-.785.99-.785 1.816 0 1.047.385 1.689.848 2.452l.012.018c.471.773 1.016 1.667 1.016 3.067v6.768h3.75V14.463c0-.826-.313-1.418-.787-1.816-.486-.408-1.191-.648-2.026-.648-.835 0-1.54.24-2.028.648Zm6.089 1.816v3.221a7.43 7.43 0 0 1 1.384-.605c1.439-.478 3.384-.771 5.492-.771s4.053.293 5.492.771a7.43 7.43 0 0 1 1.384.605v-3.221c0-1.165.457-2.111 1.225-2.754.757-.635 1.771-.939 2.836-.939 1.068 0 2.078.304 2.838.939.768.643 1.225 1.589 1.225 2.754 0 1.4-.546 2.292-1.013 3.065l-.014.018c-.465.764-.848 1.407-.848 2.454v7.385H28.5h.625V28h-6.249v-1.846H9.124V28H2.875v-8c0-1.047-.383-1.69-.847-2.454l-.015-.018C1.546 16.755 1 15.863 1 14.463c0-1.165.458-2.111 1.225-2.754.76-.635 1.77-.939 2.838-.939 1.066 0 2.079.304 2.836.939.768.643 1.225 1.589 1.225 2.754Zm0 10.46h13.752v-5.539c0-.048-.036-.208-.352-.452-.306-.234-.786-.473-1.431-.687-1.283-.427-3.09-.707-5.093-.707s-3.81.28-5.092.707c-.645.214-1.125.453-1.432.687-.316.244-.352.404-.352.452v5.539Zm15 1.845V14.463c0-.826.314-1.418.787-1.816.487-.408 1.192-.648 2.026-.648.835 0 1.54.24 2.028.648.473.398.785.99.785 1.816 0 1.047-.385 1.689-.848 2.452l-.012.018c-.471.773-1.016 1.667-1.016 3.067v6.768h-3.75Z"></path>
</svg>
