<svg width="71" height="71" viewBox="0 0 71 71" fill="none" xmlns="http://www.w3.org/2000/svg">
<path fill-rule="evenodd" clip-rule="evenodd" d="M11.7948 13.0716C11.7948 6.09023 17.7517 0.678711 24.7859 0.678711C31.82 0.678711 37.7769 6.09023 37.7769 13.0716C37.7769 14.2326 37.6735 15.5054 37.4472 16.846L46.2144 19.0505L66.9934 13.8256C67.7935 13.6244 68.6413 13.8052 69.2914 14.3158C69.9415 14.8263 70.3216 15.6097 70.3216 16.4393V62.2392C70.3216 63.4754 69.485 64.553 68.2925 64.853L46.864 70.2412C46.4375 70.3484 45.9913 70.3484 45.5649 70.2412L24.7859 65.0161L4.00694 70.2412C3.20672 70.4424 2.35898 70.2616 1.70886 69.751C1.05872 69.2405 0.678711 68.457 0.678711 67.6275V21.8275C0.678711 20.5913 1.51523 19.5137 2.70762 19.2138L12.1245 16.846C11.8983 15.5054 11.7948 14.2326 11.7948 13.0716ZM24.7859 5.25869C19.9853 5.25869 16.3484 8.89365 16.3484 13.0716C16.3484 17.331 18.1229 23.6418 23.2049 28.4327C24.0959 29.2727 25.4759 29.2727 26.3667 28.4327C31.4488 23.6418 33.2234 17.331 33.2234 13.0716C33.2234 8.89365 29.5864 5.25869 24.7859 5.25869ZM13.5601 22.0391L6.64346 23.7782C6.28627 23.868 6.03585 24.1892 6.03585 24.5575V63.1462C6.03585 63.6693 6.52793 64.0532 7.03539 63.9254L21.4997 60.2884C21.8569 60.1987 22.1073 59.8776 22.1073 59.5092V33.4928C17.831 30.2073 15.1225 26.0694 13.5601 22.0391ZM27.4644 33.4928V59.5092C27.4644 59.8776 27.7149 60.1987 28.0719 60.2884L42.5362 63.9254C43.0438 64.0532 43.5359 63.6693 43.5359 63.1462V24.5576C43.5359 24.1892 43.2854 23.868 42.9283 23.7782L36.0117 22.0391C34.4491 26.0694 31.7408 30.2073 27.4644 33.4928ZM64.9644 59.5092C64.9644 59.8776 64.714 60.1987 64.3569 60.2884L49.8926 63.9254C49.385 64.0532 48.893 63.6693 48.893 63.1462V24.5576C48.893 24.1892 49.1434 23.8681 49.5005 23.7782L63.9648 20.1412C64.4724 20.0136 64.9644 20.3973 64.9644 20.9205V59.5092Z" fill="#5C727D" fill-opacity="0.65" />
</svg>
