<svg width="16" height="20" viewBox="0 0 16 20" fill="none" xmlns="http://www.w3.org/2000/svg">
<path fill-rule="evenodd" clip-rule="evenodd" d="M8 4C6.93913 4 5.92172 4.42143 5.17157 5.17157C4.42143 5.92172 4 6.93913 4 8C4 9.06087 4.42143 10.0783 5.17157 10.8284C5.92172 11.5786 6.93913 12 8 12C9.06087 12 10.0783 11.5786 10.8284 10.8284C11.5786 10.0783 12 9.06087 12 8C12 6.93913 11.5786 5.92172 10.8284 5.17157C10.0783 4.42143 9.06087 4 8 4ZM6 8C6 7.46957 6.21071 6.96086 6.58579 6.58579C6.96086 6.21071 7.46957 6 8 6C8.53043 6 9.03914 6.21071 9.41421 6.58579C9.78929 6.96086 10 7.46957 10 8C10 8.53043 9.78929 9.03914 9.41421 9.41421C9.03914 9.78929 8.53043 10 8 10C7.46957 10 6.96086 9.78929 6.58579 9.41421C6.21071 9.03914 6 8.53043 6 8Z" fill="#5C727D" fill-opacity="0.65"/>
<path fill-rule="evenodd" clip-rule="evenodd" d="M8 0C3.531 0 0 3.807 0 8.389C0 10.439 0.906 12.527 1.995 14.319C3.096 16.13 4.457 17.755 5.518 18.907C5.83203 19.2534 6.2151 19.5303 6.64257 19.7197C7.07003 19.9092 7.53243 20.0071 8 20.0071C8.46757 20.0071 8.92997 19.9092 9.35743 19.7197C9.7849 19.5303 10.168 19.2534 10.482 18.907C11.542 17.755 12.904 16.13 14.005 14.318C15.095 12.527 16 10.44 16 8.388C16 3.809 12.468 0 8 0ZM2 8.389C2 4.809 4.737 2 8 2C11.264 2 14 4.809 14 8.389C14 9.895 13.316 11.603 12.296 13.279C11.29 14.936 10.024 16.452 9.011 17.552C8.88433 17.6952 8.7287 17.8098 8.55441 17.8883C8.38012 17.9668 8.19115 18.0074 8 18.0074C7.80885 18.0074 7.61988 17.9668 7.44559 17.8883C7.2713 17.8098 7.11567 17.6952 6.989 17.552C5.976 16.452 4.71 14.936 3.704 13.279C2.684 11.603 2 9.895 2 8.39V8.389Z" fill="#5C727D" fill-opacity="0.65"/>
</svg>
