<svg width="63" height="63" viewBox="0 0 63 63" fill="none" xmlns="http://www.w3.org/2000/svg">
<path d="M60.1358 7.19478C50.9895 12.9174 41.794 10.0407 32.0587 6.9952C24.6697 4.68352 17.0971 2.31549 9.41774 3.79328V0H0V7.74456V12.1596V48.9403V53.3552V62.9999H9.41774V48.8239C16.4235 47.2221 23.5255 49.443 30.9411 51.7629C36.7368 53.5761 42.6438 55.4246 48.6284 55.4241C53.0882 55.4239 57.5921 54.3968 62.1207 51.5633L62.9995 51.0135V5.40286L60.1358 7.19478ZM3.74296 3.74271H5.67516V4.83229C5.03162 5.06817 4.38747 5.33518 3.74296 5.63578V3.74271ZM3.74283 59.2572V51.0498C4.40249 50.6903 5.05291 50.3906 5.67503 50.137V59.2572H3.74283ZM19.7523 44.9812C17.9663 44.6978 16.1724 44.5296 14.3712 44.5296C12.7261 44.5296 11.0743 44.672 9.41787 44.9907V44.9903L9.41504 44.9911C7.53021 45.3541 5.63886 45.9464 3.74296 46.8303V9.84767C4.07813 9.65818 4.41553 9.47582 4.75624 9.30565C4.77126 9.29814 4.78615 9.29064 4.80128 9.28325C5.21472 9.07789 5.63197 8.88704 6.05217 8.7106C6.07248 8.7021 6.09265 8.69337 6.11308 8.685C6.31365 8.60158 6.51507 8.52147 6.71699 8.44469C6.75157 8.43152 6.78602 8.4191 6.8206 8.4063C6.98388 8.34515 7.14766 8.28682 7.31192 8.2301C7.36225 8.21275 7.41245 8.19478 7.46266 8.1778C7.63591 8.11948 7.80977 8.06448 7.98364 8.01108C11.869 6.82134 15.7796 6.88987 19.7524 7.57869V44.9812H19.7523ZM39.5049 50.372C37.0533 49.753 34.574 48.9777 32.0588 48.1908C29.2295 47.3057 26.3736 46.4128 23.4951 45.7302V8.386C25.9467 9.00492 28.4261 9.78036 30.9413 10.5672C33.7705 11.4524 36.6264 12.3453 39.5049 13.0281V50.372ZM59.257 48.914C53.9737 51.9051 48.6685 52.119 43.2474 51.1792V13.777C45.0336 14.0605 46.8276 14.2286 48.6288 14.2286C52.1469 14.2284 55.694 13.5889 59.2572 11.9279V48.914H59.257Z" fill="#5C727D" fill-opacity="0.65"/>
</svg>
