<svg width="20" height="20" viewBox="0 0 20 20" fill="none" xmlns="http://www.w3.org/2000/svg">
<path fill-rule="evenodd" clip-rule="evenodd" d="M20 10C20 15.523 15.523 20 10 20C4.477 20 0 15.523 0 10C0 4.477 4.477 0 10 0C15.523 0 20 4.477 20 10ZM9.132 2.432C9.482 2.099 9.773 2 10 2C10.227 2 10.518 2.1 10.868 2.432C11.222 2.769 11.587 3.304 11.915 4.042C12.55 5.472 12.975 7.498 12.999 9.792C12.062 9.926 11.055 10 10 10C8.945 10 7.938 9.926 7.001 9.791C7.025 7.498 7.45 5.472 8.085 4.042C8.413 3.304 8.778 2.769 9.132 2.432ZM5.01 9.39C5.076 7.034 5.529 4.873 6.259 3.23C6.31845 3.09551 6.38114 2.96247 6.447 2.831C5.37912 3.36136 4.44303 4.1233 3.70693 5.06128C2.97084 5.99926 2.45329 7.08965 2.192 8.253C2.932 8.701 3.889 9.092 5.01 9.39ZM2.01 10.425C2.896 10.85 3.923 11.2 5.049 11.46C5.189 13.484 5.615 15.327 6.257 16.77C6.317 16.906 6.38 17.039 6.445 17.169C5.17442 16.5388 4.09417 15.5822 3.31488 14.3972C2.53559 13.2121 2.08526 11.8413 2.01 10.425ZM7.085 11.82C8.02 11.938 8.997 12 9.999 12C11.001 12 11.979 11.938 12.913 11.82C12.756 13.447 12.396 14.873 11.913 15.958C11.586 16.696 11.221 17.231 10.867 17.568C10.517 17.901 10.226 18 9.999 18C9.772 18 9.481 17.9 9.131 17.568C8.777 17.231 8.412 16.696 8.084 15.958C7.602 14.874 7.242 13.447 7.085 11.821V11.82ZM14.949 11.46C14.809 13.484 14.383 15.327 13.741 16.77C13.6815 16.9045 13.6189 17.0375 13.553 17.169C14.8236 16.5388 15.9038 15.5822 16.6831 14.3972C17.4624 13.2121 17.9127 11.8413 17.988 10.425C17.102 10.85 16.075 11.2 14.949 11.46ZM17.808 8.253C17.5467 7.08965 17.0292 5.99926 16.2931 5.06128C15.557 4.1233 14.6209 3.36136 13.553 2.831C13.618 2.961 13.681 3.094 13.741 3.23C14.471 4.873 14.923 7.034 14.991 9.39C16.111 9.092 17.069 8.7 17.808 8.253Z" fill="#5C727D" fill-opacity="0.65"/>
</svg>
